<svg width="474" height="322" viewBox="0 0 474 322" fill="none" xmlns="http://www.w3.org/2000/svg">
<g clip-path="url(#clip0)" filter="url(#filter0_d)">
<path d="M390.497 226.382H15.5119L9.87915 12.6328H390.497V226.382Z" fill="#FEFEFE"/>
<path d="M201.392 0.851343C255.311 0.851343 309.343 1.53322 363.129 0.510405C384.94 0.0937026 399.733 10.9658 398.253 35.968C396.983 57.2576 397.893 78.6799 398.083 100.045C398.083 104.762 397.685 107.262 391.786 107.489C385.319 107.735 385.186 104.478 385.774 100.102C386.836 92.2417 384.409 89.6089 375.685 89.6278C259.363 89.9814 143.042 89.9814 26.7204 89.6278C17.9963 89.6278 16.4221 92.2227 16.517 100.121C16.9152 133.741 16.6877 167.362 16.7066 201.001C16.7066 219.108 20.9359 223.351 38.8203 223.351C123.634 223.351 208.447 223.395 293.261 223.484C296.409 223.484 301.378 220.832 302.63 226.533C303.881 232.235 302.63 235.549 295.044 235.436C266.975 234.962 238.925 235.246 210.856 235.246C153.789 235.246 96.7218 234.602 39.6548 235.568C16.1946 235.947 3.62046 223.787 3.98081 200.471C5.06816 145.504 5.06816 90.5117 3.98081 35.4944C3.52564 11.2689 17.4463 0.131585 38.7255 0.510405C92.9287 1.51428 147.17 0.851343 201.392 0.851343Z" fill="#3A3A3A"/>
<path d="M176.585 165.448C177.477 175.108 182.01 178.707 190.658 176.453C192.554 175.961 194.83 175.108 194.868 173.233C195.318 164.978 195.122 156.701 194.28 148.477C193.616 143.723 183.185 142.151 177.97 146.432C173.21 150.333 168.601 150.75 162.627 149.443C165.794 141.166 165.377 133.135 163.803 124.63C162.229 116.126 167.33 107.584 163.803 98.7002C162.987 96.6357 165.396 95.6318 167.444 95.556C169.492 95.4803 171.863 95.556 174.063 95.556C236.497 95.556 298.919 95.556 361.328 95.556C368.136 95.556 374.073 95.2909 373.409 105.027C372.745 114.497 365.349 115.065 359.924 113.986C350.631 112.092 347.445 115.88 342.287 122.907C337.128 129.934 328.897 134.271 323.321 142.151C319.68 147.246 314.085 150.106 314.597 157.872C315.09 165.107 314.18 171.718 303.919 171.453C299.918 171.339 297.414 174.029 297.983 179.029C298.95 187.874 299.368 196.796 299.519 205.679C299.728 217.328 296.902 219.998 285.087 219.998C209.111 219.998 133.136 219.885 57.16 220.169C47.8669 220.169 39.9394 216.381 31.9929 213.199C25.1843 210.547 27.1946 202.44 27.1946 196.265C27.1946 190.848 31.5756 192.477 34.7808 191.587C65.7703 183.48 97.3668 190.109 128.489 187.969C131.637 187.742 133.61 190.166 136.227 191.057C143.092 193.386 147.379 189.844 149.218 183.764C150.925 178.082 148.441 174.161 142.315 172.76C138.071 171.636 133.712 171 129.324 170.865C103.777 170.998 78.2496 170.865 52.7031 170.865C48.8152 170.865 43.8842 172.153 44.2066 165.429C47.6394 161.641 52.2669 162.228 56.591 162.228C92.4863 162.115 128.388 162.115 164.296 162.228C168.544 162.247 173.153 161.755 176.585 165.448Z" fill="#FEFEFE"/>
<path d="M469.45 204.865C470.246 229.204 472.105 253.543 458.507 275.837C442.405 302.203 408.21 318.549 381.052 312.109C392.203 304.722 391.35 294.588 387.633 283.697C386.855 278.867 390.364 276.254 393.19 273.412C403.798 262.667 414.494 252.009 425.279 241.44C428.674 238.106 430.172 235.303 426.133 231.212C422.093 227.121 419.722 229.64 416.859 232.481C410.865 238.485 405.138 244.83 398.633 250.285C396.129 252.388 393.057 257.862 388.828 251.782C388.164 237.235 390.421 222.745 389.434 208.218C389.243 207.296 389.349 206.337 389.738 205.48C390.126 204.622 390.777 203.909 391.597 203.444C408.665 200.622 425.886 202.876 443.031 202.1C451.983 201.702 460.896 201.512 469.45 204.865Z" fill="#6EA002"/>
<path d="M388.467 282.277C395.01 287.296 390.971 294.532 392.374 300.612C394.745 310.783 386.685 310.082 380.995 312.109C347.54 308.87 318.655 280.705 314.35 246.27C313.023 233.788 314.085 221.268 313.762 208.767C313.643 208.158 313.662 207.53 313.818 206.93C313.974 206.329 314.262 205.771 314.663 205.297C315.063 204.822 315.565 204.444 316.131 204.189C316.697 203.934 317.314 203.809 317.935 203.823C322.562 203.179 327.019 201.531 331.836 201.777C347.843 202.592 363.869 202.005 379.895 202.251C383.688 202.251 387.481 201.759 390.421 205.035C393.967 214.07 391.957 223.446 391.957 232.67C391.957 239.944 391.047 247.217 390.534 254.49C388.429 264.131 383.195 266.385 375.988 260.495C372.195 257.312 368.004 254.433 364.343 251.024C360.683 247.615 358.255 249.376 355.524 252.179C352.509 255.267 353.628 257.729 356.302 260.097C363.654 266.398 370.62 273.134 377.164 280.269C380.862 284.265 384.788 281.5 388.467 282.277Z" fill="#79BC01"/>
<path d="M44.1308 138.534C41.973 138.185 39.7924 137.995 37.6067 137.965C32.4291 138.268 30.1912 136.336 30.5326 130.9C30.9403 124.631 30.9403 118.342 30.5326 112.073C30.1153 105.993 32.8843 104.8 38.3653 104.819C74.5703 105.008 110.794 105.103 146.999 104.819C154.339 104.819 156.482 107.338 155.723 114.119C155.268 117.551 155.268 121.028 155.723 124.46C157.203 133.931 154.605 139.613 143.794 138.609C140.456 142.398 135.848 141.886 131.562 141.905C106.527 142.044 81.4864 142.044 56.4394 141.905C52.0963 141.848 47.6204 142.038 44.1308 138.534Z" fill="#3A3A3A"/>
<path d="M390.478 205.073C367.814 204.922 345.131 204.941 322.468 204.505C315.678 204.372 314.047 207.081 314.313 213.388C314.768 224.336 314.426 235.322 314.313 246.308C310.52 233.447 313.307 220.264 312.587 207.27C312.587 206.418 312.928 204.884 313.421 204.732C323.568 201.796 320.021 193.368 320.135 187.022C320.597 168.375 328.443 150.672 341.952 137.791C355.46 124.91 373.531 117.903 392.204 118.305C396.547 124.366 393.152 131.563 395.162 138.003C391.749 140.011 387.842 139.556 384.143 140.125C372.377 141.902 361.64 147.836 353.883 156.849C346.125 165.861 341.863 177.354 341.869 189.239C341.869 198.955 342.875 200.205 352.547 200.262C377.999 200.395 403.431 200.262 428.883 200.262C433.264 200.262 437.721 199.732 441.912 201.626C442.405 201.836 442.803 202.222 443.027 202.709C443.251 203.195 443.287 203.748 443.126 204.259L390.478 205.073Z" fill="#BBBBBB"/>
<path d="M443.315 204.297C443.344 203.817 443.344 203.336 443.315 202.857C441.988 195.489 443.031 188.007 441.419 180.582C436.867 160.997 425.943 147.511 406.447 141.28C402.957 140.162 396.964 140.257 394.422 137.037L392.526 118.266C428.029 117.604 459.341 145.56 462.698 180.923C463.462 185.854 463.804 190.841 463.722 195.83C463.286 200.868 466.188 202.8 469.583 204.884L443.315 204.297Z" fill="#9A9A9A"/>
<path d="M176.585 165.449H44.1307C39.8824 163.555 31.348 168.138 31.4238 161.793C31.4238 154.577 39.9204 158.005 44.529 158.005C89.8564 157.721 135.184 157.816 180.53 157.816C183.034 157.816 185.575 157.815 188.116 157.986C190.146 158.175 191.758 159.179 191.663 161.528C191.657 162.007 191.552 162.481 191.354 162.918C191.157 163.355 190.871 163.747 190.515 164.068C190.159 164.39 189.74 164.635 189.285 164.788C188.83 164.941 188.348 164.998 187.87 164.956C184.172 165.297 180.378 165.297 176.585 165.449Z" fill="#424242"/>
<path d="M44.1309 138.534C77.3583 137.561 110.586 137.561 143.813 138.534C147.189 138.666 148.517 141.375 150.11 143.648C153.011 147.777 151.93 150.144 146.81 150.144C115.327 150.144 83.8445 150.296 52.3619 150.144C45.155 149.993 44.5481 144.064 44.1309 138.534Z" fill="#FEFEFE"/>
<path d="M84.8305 186.283C69.0892 186.283 53.3479 186.283 37.6066 186.283C34.9893 186.283 31.0824 187.287 30.9118 183.196C30.7221 178.461 34.8945 179.313 37.891 179.294C69.0576 179.294 100.224 179.294 131.391 179.294C134.292 179.294 138.711 178.252 138.541 183.082C138.37 187.912 133.913 186.132 131.068 186.132C115.687 186.359 100.268 186.283 84.8305 186.283Z" fill="#464646"/>
<path d="M200.747 43.3929C144.041 43.3929 87.315 43.5255 30.6083 43.1278C26.1325 43.1278 18.4894 48.0145 16.7635 38.8282C14.2791 25.5695 18.3187 16.2884 27.3463 13.4851C29.7693 12.842 32.2757 12.5674 34.7807 12.6707C145.691 12.6707 256.594 12.6707 367.492 12.6707C382.266 12.6707 391.122 26.6112 385.528 40.6465C383.631 45.3249 379.61 43.2982 376.557 43.2982C317.954 43.4371 259.351 43.4687 200.747 43.3929Z" fill="#FDFDFD"/>
<path d="M388.468 282.276C383.461 287.542 379.762 287.315 374.793 281.216C368.535 273.639 360.797 267.142 353.457 260.381C346.952 254.452 353.628 252.179 356.093 248.258C359.659 242.576 362.466 245.285 365.576 248.258C368.326 250.815 371.019 253.429 373.731 256.024C382.74 264.585 382.74 264.585 390.554 254.471C398.955 246.516 407.869 239.015 415.569 230.454C421.05 224.355 423.838 225.662 429.281 230.624C435.483 236.307 431.576 238.693 428.01 242.292C414.823 255.576 401.642 268.904 388.468 282.276Z" fill="#FBFCF9"/>
<path d="M396.186 136.772C430.59 139.821 450.598 172.968 443.24 202.857C411.397 202.857 379.554 202.667 347.711 202.857C341.206 202.857 339.499 200.963 338.968 194.409C338.333 186.722 339.374 178.989 342.018 171.741C344.662 164.494 348.847 157.905 354.284 152.428C359.722 146.95 366.283 142.715 373.517 140.012C380.75 137.309 388.484 136.204 396.186 136.772V136.772Z" fill="#FDFEFD"/>
<path d="M229.881 59.7672V71.0972C229.881 72.3585 229.492 73.3705 228.715 74.1332C227.937 74.8812 226.911 75.2552 225.635 75.2552C224.344 75.2552 223.31 74.8738 222.533 74.1112C221.755 73.3338 221.367 72.2778 221.367 70.9432H223.369C223.383 71.6912 223.574 72.2998 223.941 72.7692C224.322 73.2385 224.887 73.4732 225.635 73.4732C226.383 73.4732 226.94 73.2532 227.307 72.8132C227.673 72.3585 227.857 71.7865 227.857 71.0972V59.7672H229.881ZM244.517 63.0452V75.1012H242.515V73.3192C242.133 73.9352 241.598 74.4192 240.909 74.7712C240.234 75.1085 239.486 75.2772 238.665 75.2772C237.726 75.2772 236.883 75.0865 236.135 74.7052C235.387 74.3092 234.793 73.7225 234.353 72.9452C233.927 72.1678 233.715 71.2218 233.715 70.1072V63.0452H235.695V69.8432C235.695 71.0312 235.995 71.9478 236.597 72.5932C237.198 73.2238 238.019 73.5392 239.061 73.5392C240.131 73.5392 240.975 73.2092 241.591 72.5492C242.207 71.8892 242.515 70.9285 242.515 69.6672V63.0452H244.517ZM252.165 75.2992C251.241 75.2992 250.412 75.1452 249.679 74.8372C248.946 74.5145 248.366 74.0745 247.941 73.5172C247.516 72.9452 247.281 72.2925 247.237 71.5592H249.305C249.364 72.1605 249.642 72.6518 250.141 73.0332C250.654 73.4145 251.322 73.6052 252.143 73.6052C252.906 73.6052 253.507 73.4365 253.947 73.0992C254.387 72.7618 254.607 72.3365 254.607 71.8232C254.607 71.2952 254.372 70.9065 253.903 70.6572C253.434 70.3932 252.708 70.1365 251.725 69.8872C250.83 69.6525 250.097 69.4178 249.525 69.1832C248.968 68.9338 248.484 68.5745 248.073 68.1052C247.677 67.6212 247.479 66.9905 247.479 66.2132C247.479 65.5972 247.662 65.0325 248.029 64.5192C248.396 64.0058 248.916 63.6025 249.591 63.3092C250.266 63.0012 251.036 62.8472 251.901 62.8472C253.236 62.8472 254.314 63.1845 255.135 63.8592C255.956 64.5338 256.396 65.4578 256.455 66.6312H254.453C254.409 66.0005 254.152 65.4945 253.683 65.1132C253.228 64.7318 252.612 64.5412 251.835 64.5412C251.116 64.5412 250.544 64.6952 250.119 65.0032C249.694 65.3112 249.481 65.7145 249.481 66.2132C249.481 66.6092 249.606 66.9392 249.855 67.2032C250.119 67.4525 250.442 67.6578 250.823 67.8192C251.219 67.9658 251.762 68.1345 252.451 68.3252C253.316 68.5598 254.02 68.7945 254.563 69.0292C255.106 69.2492 255.568 69.5865 255.949 70.0412C256.345 70.4958 256.55 71.0898 256.565 71.8232C256.565 72.4832 256.382 73.0772 256.015 73.6052C255.648 74.1332 255.128 74.5512 254.453 74.8592C253.793 75.1525 253.03 75.2992 252.165 75.2992ZM261.393 65.2892C261.804 64.5705 262.405 63.9838 263.197 63.5292C263.989 63.0745 264.891 62.8472 265.903 62.8472C266.988 62.8472 267.964 63.1038 268.829 63.6172C269.694 64.1305 270.376 64.8565 270.875 65.7952C271.374 66.7192 271.623 67.7972 271.623 69.0292C271.623 70.2465 271.374 71.3318 270.875 72.2852C270.376 73.2385 269.687 73.9792 268.807 74.5072C267.942 75.0352 266.974 75.2992 265.903 75.2992C264.862 75.2992 263.945 75.0718 263.153 74.6172C262.376 74.1625 261.789 73.5832 261.393 72.8792V75.1012H259.391V58.8212H261.393V65.2892ZM269.577 69.0292C269.577 68.1198 269.394 67.3278 269.027 66.6532C268.66 65.9785 268.162 65.4652 267.531 65.1132C266.915 64.7612 266.233 64.5852 265.485 64.5852C264.752 64.5852 264.07 64.7685 263.439 65.1352C262.823 65.4872 262.324 66.0078 261.943 66.6972C261.576 67.3718 261.393 68.1565 261.393 69.0512C261.393 69.9605 261.576 70.7598 261.943 71.4492C262.324 72.1238 262.823 72.6445 263.439 73.0112C264.07 73.3632 264.752 73.5392 265.485 73.5392C266.233 73.5392 266.915 73.3632 267.531 73.0112C268.162 72.6445 268.66 72.1238 269.027 71.4492C269.394 70.7598 269.577 69.9532 269.577 69.0292ZM275.292 61.0872C274.911 61.0872 274.588 60.9552 274.324 60.6912C274.06 60.4272 273.928 60.1045 273.928 59.7232C273.928 59.3418 274.06 59.0192 274.324 58.7552C274.588 58.4912 274.911 58.3592 275.292 58.3592C275.659 58.3592 275.967 58.4912 276.216 58.7552C276.48 59.0192 276.612 59.3418 276.612 59.7232C276.612 60.1045 276.48 60.4272 276.216 60.6912C275.967 60.9552 275.659 61.0872 275.292 61.0872ZM276.26 63.0452V75.1012H274.258V63.0452H276.26ZM278.924 69.0292C278.924 67.7972 279.174 66.7192 279.672 65.7952C280.171 64.8565 280.853 64.1305 281.718 63.6172C282.598 63.1038 283.581 62.8472 284.666 62.8472C285.605 62.8472 286.478 63.0672 287.284 63.5072C288.091 63.9325 288.707 64.4972 289.132 65.2012V58.8212H291.156V75.1012H289.132V72.8352C288.736 73.5538 288.15 74.1478 287.372 74.6172C286.595 75.0718 285.686 75.2992 284.644 75.2992C283.574 75.2992 282.598 75.0352 281.718 74.5072C280.853 73.9792 280.171 73.2385 279.672 72.2852C279.174 71.3318 278.924 70.2465 278.924 69.0292ZM289.132 69.0512C289.132 68.1418 288.949 67.3498 288.582 66.6752C288.216 66.0005 287.717 65.4872 287.086 65.1352C286.47 64.7685 285.788 64.5852 285.04 64.5852C284.292 64.5852 283.61 64.7612 282.994 65.1132C282.378 65.4652 281.887 65.9785 281.52 66.6532C281.154 67.3278 280.97 68.1198 280.97 69.0292C280.97 69.9532 281.154 70.7598 281.52 71.4492C281.887 72.1238 282.378 72.6445 282.994 73.0112C283.61 73.3632 284.292 73.5392 285.04 73.5392C285.788 73.5392 286.47 73.3632 287.086 73.0112C287.717 72.6445 288.216 72.1238 288.582 71.4492C288.949 70.7598 289.132 69.9605 289.132 69.0512ZM305.267 75.2552C304.255 75.2552 303.345 75.0792 302.539 74.7272C301.747 74.3605 301.123 73.8618 300.669 73.2312C300.214 72.5858 299.979 71.8452 299.965 71.0092H302.099C302.172 71.7278 302.465 72.3365 302.979 72.8352C303.507 73.3192 304.269 73.5612 305.267 73.5612C306.22 73.5612 306.968 73.3265 307.511 72.8572C308.068 72.3732 308.347 71.7572 308.347 71.0092C308.347 70.4225 308.185 69.9458 307.863 69.5792C307.54 69.2125 307.137 68.9338 306.653 68.7432C306.169 68.5525 305.516 68.3472 304.695 68.1272C303.683 67.8632 302.869 67.5992 302.253 67.3352C301.651 67.0712 301.131 66.6605 300.691 66.1032C300.265 65.5312 300.053 64.7685 300.053 63.8152C300.053 62.9792 300.265 62.2385 300.691 61.5932C301.116 60.9478 301.71 60.4492 302.473 60.0972C303.25 59.7452 304.137 59.5692 305.135 59.5692C306.572 59.5692 307.745 59.9285 308.655 60.6472C309.579 61.3658 310.099 62.3192 310.217 63.5072H308.017C307.943 62.9205 307.635 62.4072 307.093 61.9672C306.55 61.5125 305.831 61.2852 304.937 61.2852C304.101 61.2852 303.419 61.5052 302.891 61.9452C302.363 62.3705 302.099 62.9718 302.099 63.7492C302.099 64.3065 302.253 64.7612 302.561 65.1132C302.883 65.4652 303.272 65.7365 303.727 65.9272C304.196 66.1032 304.849 66.3085 305.685 66.5432C306.697 66.8218 307.511 67.1005 308.127 67.3792C308.743 67.6432 309.271 68.0612 309.711 68.6332C310.151 69.1905 310.371 69.9532 310.371 70.9212C310.371 71.6692 310.173 72.3732 309.777 73.0332C309.381 73.6932 308.794 74.2285 308.017 74.6392C307.239 75.0498 306.323 75.2552 305.267 75.2552ZM324.317 68.6112C324.317 68.9925 324.295 69.3958 324.251 69.8212H314.615C314.688 71.0092 315.091 71.9405 315.825 72.6152C316.573 73.2752 317.475 73.6052 318.531 73.6052C319.396 73.6052 320.115 73.4072 320.687 73.0112C321.273 72.6005 321.684 72.0578 321.919 71.3832H324.075C323.752 72.5418 323.107 73.4878 322.139 74.2212C321.171 74.9398 319.968 75.2992 318.531 75.2992C317.387 75.2992 316.36 75.0425 315.451 74.5292C314.556 74.0158 313.852 73.2898 313.339 72.3512C312.825 71.3978 312.569 70.2978 312.569 69.0512C312.569 67.8045 312.818 66.7118 313.317 65.7732C313.815 64.8345 314.512 64.1158 315.407 63.6172C316.316 63.1038 317.357 62.8472 318.531 62.8472C319.675 62.8472 320.687 63.0965 321.567 63.5952C322.447 64.0938 323.121 64.7832 323.591 65.6632C324.075 66.5285 324.317 67.5112 324.317 68.6112ZM322.249 68.1932C322.249 67.4305 322.08 66.7778 321.743 66.2352C321.405 65.6778 320.943 65.2598 320.357 64.9812C319.785 64.6878 319.147 64.5412 318.443 64.5412C317.431 64.5412 316.565 64.8638 315.847 65.5092C315.143 66.1545 314.739 67.0492 314.637 68.1932H322.249ZM326.211 69.0512C326.211 67.8045 326.461 66.7192 326.959 65.7952C327.458 64.8565 328.147 64.1305 329.027 63.6172C329.922 63.1038 330.941 62.8472 332.085 62.8472C333.567 62.8472 334.784 63.2065 335.737 63.9252C336.705 64.6438 337.343 65.6412 337.651 66.9172H335.495C335.29 66.1838 334.887 65.6045 334.285 65.1792C333.699 64.7538 332.965 64.5412 332.085 64.5412C330.941 64.5412 330.017 64.9372 329.313 65.7292C328.609 66.5065 328.257 67.6138 328.257 69.0512C328.257 70.5032 328.609 71.6252 329.313 72.4172C330.017 73.2092 330.941 73.6052 332.085 73.6052C332.965 73.6052 333.699 73.3998 334.285 72.9892C334.872 72.5785 335.275 71.9918 335.495 71.2292H337.651C337.329 72.4612 336.683 73.4512 335.715 74.1992C334.747 74.9325 333.537 75.2992 332.085 75.2992C330.941 75.2992 329.922 75.0425 329.027 74.5292C328.147 74.0158 327.458 73.2898 326.959 72.3512C326.461 71.4125 326.211 70.3125 326.211 69.0512ZM351.015 63.0452V75.1012H349.013V73.3192C348.631 73.9352 348.096 74.4192 347.407 74.7712C346.732 75.1085 345.984 75.2772 345.163 75.2772C344.224 75.2772 343.381 75.0865 342.633 74.7052C341.885 74.3092 341.291 73.7225 340.851 72.9452C340.425 72.1678 340.213 71.2218 340.213 70.1072V63.0452H342.193V69.8432C342.193 71.0312 342.493 71.9478 343.095 72.5932C343.696 73.2238 344.517 73.5392 345.559 73.5392C346.629 73.5392 347.473 73.2092 348.089 72.5492C348.705 71.8892 349.013 70.9285 349.013 69.6672V63.0452H351.015ZM356.397 65.0032C356.749 64.3138 357.248 63.7785 357.893 63.3972C358.553 63.0158 359.352 62.8252 360.291 62.8252V64.8932H359.763C357.519 64.8932 356.397 66.1105 356.397 68.5452V75.1012H354.395V63.0452H356.397V65.0032ZM363.636 61.0872C363.255 61.0872 362.932 60.9552 362.668 60.6912C362.404 60.4272 362.272 60.1045 362.272 59.7232C362.272 59.3418 362.404 59.0192 362.668 58.7552C362.932 58.4912 363.255 58.3592 363.636 58.3592C364.003 58.3592 364.311 58.4912 364.56 58.7552C364.824 59.0192 364.956 59.3418 364.956 59.7232C364.956 60.1045 364.824 60.4272 364.56 60.6912C364.311 60.9552 364.003 61.0872 363.636 61.0872ZM364.604 63.0452V75.1012H362.602V63.0452H364.604ZM370.458 64.6952V71.8012C370.458 72.3878 370.583 72.8058 370.832 73.0552C371.081 73.2898 371.514 73.4072 372.13 73.4072H373.604V75.1012H371.8C370.685 75.1012 369.849 74.8445 369.292 74.3312C368.735 73.8178 368.456 72.9745 368.456 71.8012V64.6952H366.894V63.0452H368.456V60.0092H370.458V63.0452H373.604V64.6952H370.458ZM386.414 63.0452L379.154 80.7772H377.086L379.462 74.9692L374.6 63.0452H376.822L380.606 72.8132L384.346 63.0452H386.414Z" fill="#FDFEFD"/>
</g>
<defs>
<filter id="filter0_d" x="0" y="0.510162" width="474" height="321" filterUnits="userSpaceOnUse" color-interpolation-filters="sRGB">
<feFlood flood-opacity="0" result="BackgroundImageFix"/>
<feColorMatrix in="SourceAlpha" type="matrix" values="0 0 0 0 0 0 0 0 0 0 0 0 0 0 0 0 0 0 127 0" result="hardAlpha"/>
<feOffset dy="4"/>
<feGaussianBlur stdDeviation="2"/>
<feComposite in2="hardAlpha" operator="out"/>
<feColorMatrix type="matrix" values="0 0 0 0 0 0 0 0 0 0 0 0 0 0 0 0 0 0 0.25 0"/>
<feBlend mode="normal" in2="BackgroundImageFix" result="effect1_dropShadow"/>
<feBlend mode="normal" in="SourceGraphic" in2="effect1_dropShadow" result="shape"/>
</filter>
<clipPath id="clip0">
<rect width="466" height="313" fill="white" transform="translate(4 0.510162)"/>
</clipPath>
</defs>
</svg>
