<svg xmlns="http://www.w3.org/2000/svg" width="20.928" height="20.928" viewBox="0 0 20.928 20.928">
  <path id="Icon_material-my-location" data-name="Icon material-my-location" d="M11.964,8.159a3.805,3.805,0,1,0,3.805,3.805A3.8,3.8,0,0,0,11.964,8.159Zm8.5,2.854A8.556,8.556,0,0,0,12.915,3.46V1.5h-1.9V3.46A8.556,8.556,0,0,0,3.46,11.013H1.5v1.9H3.46a8.556,8.556,0,0,0,7.553,7.553v1.96h1.9v-1.96a8.556,8.556,0,0,0,7.553-7.553h1.96v-1.9Zm-8.5,7.61a6.659,6.659,0,1,1,6.659-6.659A6.654,6.654,0,0,1,11.964,18.623Z" transform="translate(-1.5 -1.5)"/>
</svg>
