<svg xmlns="http://www.w3.org/2000/svg" width="568.506" height="976.023" viewBox="0 0 568.506 976.023">
  <g id="Group_51" data-name="Group 51" transform="translate(-2784.937 -553.138)">
    <path id="Path_3415" data-name="Path 3415" d="M2859.565,1471.575v-13.266s.865-3.869,3.9-3.869h30.727l-3.03,21.005Z" fill="#bfc1ae"/>
    <path id="Path_3416" data-name="Path 3416" d="M2935.17,746.65s-85.584,369.942-87.723,508.93c-1.037,67.424,6.412,137.417,13.9,148.233,0,0,44.577-2.8,59.872-1.761,21.025,1.426,63.434-.712,63.434-.712S2943.724,853.564,2935.17,746.65Z" fill="#ff7e78"/>
    <path id="Path_3417" data-name="Path 3417" d="M2847.447,1255.58c-1.037,67.425,6.412,137.417,13.9,148.233,0,0,18.843-1.182,36.231-1.725-1.737-23.325-3.027-40.324-5.393-73.764-9.153-129.389,42.985-581.674,42.985-581.674S2849.586,1116.592,2847.447,1255.58Z" fill="#f45656"/>
    <path id="Path_3418" data-name="Path 3418" d="M2935.17,746.65s33.09,388.118,39.505,488.617,13.239,203.471,13.239,203.471l-11.1-8.888S2934.154,792.6,2935.17,746.65Z" fill="#a55a46"/>
    <path id="Path_3419" data-name="Path 3419" d="M2880.591,1474.754l12.83-40.272,93.477-.754s45.867-10.293,74.377-12.432,30.471,8.554,30.471,8.554l5.63,11.718-2.958,2.872,4.277,18.552-122.951,19.6Z" fill="#caccb4"/>
    <path id="Path_3420" data-name="Path 3420" d="M3058.78,1418.445c-14.205,1.066-28.475,2.158-43.477,4.99L2998.2,1438.4l-7.128,41.748,107.627-17.158-4.277-18.552,2.958-2.871-5.63-11.719a3.167,3.167,0,0,0-.1-.351l-19.1-8.366C3069.346,1420.945,3063.127,1418.119,3058.78,1418.445Z" fill="#e8e4d6"/>
    <path id="Path_3421" data-name="Path 3421" d="M3090.854,1427.712c-9.867-8.556-24.8-11.528-35.41-12.089-30.952-1.639-112.843,2.466-112.843,2.466s-42.766,2.673-52.117,15.66l-1.136,1.8c-.051.126-1.4,3.384-.55,4.811l82.823,1.6,26.04-.357s7.71-19.47,56.718-19.858c32.64-.258,40.766,23.714,40.766,23.714l6.393-1.332S3097.809,1433.741,3090.854,1427.712Z" fill="#a55a46"/>
    <path id="Path_3422" data-name="Path 3422" d="M2896.7,1447.265l-3.484,10.45a2,2,0,0,0,1.878,2.636l90.291,1.02a2,2,0,0,0,1.966-1.518l2.739-10.958a2,2,0,0,0-1.931-2.489l-89.548-.511A2,2,0,0,0,2896.7,1447.265Z" fill="#5881a0"/>
    <path id="Path_3423" data-name="Path 3423" d="M3006.086,1459.277a3.576,3.576,0,0,1-3.857-4.479c2.185-7.9,10.162-22.62,39.267-24.948,37.927-3.035,45.973,10.691,47.042,13.9.272.817.51,1.635.713,2.4a3.576,3.576,0,0,1-3.09,4.448Z" fill="#5881a0"/>
    <path id="Path_3424" data-name="Path 3424" d="M2917.76,1460.607l13.336.151,2.714-14.662-12.868-.074C2920.314,1448.772,2918.738,1455.735,2917.76,1460.607Z" fill="#3d667f"/>
    <path id="Path_3425" data-name="Path 3425" d="M2960.615,1446.249l-14.806-.084-2.54,14.73,13.772.155Z" fill="#3d667f"/>
    <path id="Path_3426" data-name="Path 3426" d="M2907.816,1445.947l-9.2-.052a2,2,0,0,0-1.911,1.37l-3.484,10.45a2,2,0,0,0,1.878,2.636l8.22.092Z" fill="#3d667f"/>
    <path id="Path_3427" data-name="Path 3427" d="M2988.162,1446.406l-14.576-.083-3.719,14.873,15.522.175a2,2,0,0,0,1.965-1.518l2.739-10.958A2,2,0,0,0,2988.162,1446.406Z" fill="#3d667f"/>
    <path id="Path_3428" data-name="Path 3428" d="M3038.947,1455.714l17.549-1.9-1.131-24.328a121.913,121.913,0,0,0-13.869.368c-1.017.081-2,.181-2.969.292Z" fill="#3d667f"/>
    <path id="Path_3429" data-name="Path 3429" d="M3022.559,1433.951c-13.971,5.546-18.723,15.04-20.33,20.847a3.577,3.577,0,0,0,3.857,4.479l14.242-1.544Z" fill="#3d667f"/>
    <path id="Path_3430" data-name="Path 3430" d="M3089.251,1446.147c-.2-.764-.441-1.582-.713-2.4-.739-2.216-4.812-9.448-19.761-12.71l3.245,21.09,14.139-1.533A3.576,3.576,0,0,0,3089.251,1446.147Z" fill="#3d667f"/>
    <path id="Path_3431" data-name="Path 3431" d="M3323.674,1365.016l15.717,70.683,4.645-1.032-15.957-71.763Z" fill="#a55a46"/>
    <path id="Path_3432" data-name="Path 3432" d="M3345.2,1438.4h-2.743l-.187-27.442,2.931-.532Z" fill="#bdc1a3"/>
    <rect id="Rectangle_738" data-name="Rectangle 738" width="2.138" height="26.729" transform="translate(3329.629 1413.813)" fill="#bdc1a3"/>
    <rect id="Rectangle_739" data-name="Rectangle 739" width="2.139" height="26.728" transform="translate(3316.799 1415.951)" fill="#bdc1a3"/>
    <rect id="Rectangle_740" data-name="Rectangle 740" width="2.138" height="26.729" transform="translate(3303.97 1418.089)" fill="#bdc1a3"/>
    <rect id="Rectangle_741" data-name="Rectangle 741" width="2.138" height="26.729" transform="translate(3291.14 1420.228)" fill="#bdc1a3"/>
    <path id="Path_3433" data-name="Path 3433" d="M2830.4,1520.7a26.988,26.988,0,0,0,12.42,7.506c7.84,2.138,398.431,0,398.431,0l9.979-12.117Z" fill="#909377"/>
    <path id="Path_3434" data-name="Path 3434" d="M3055.93,555.295c-7.537-18.154-52.335,259.78-56.612,400.906s-8.552,440.484,4.277,440.484,201.746,14.989,269.423,12.831C3273.018,1409.516,3077.31,606.793,3055.93,555.295Z" fill="#f45656"/>
    <path id="Path_3435" data-name="Path 3435" d="M3003.595,1396.685s15.78-334.572,88.155-488.1,181.268,500.926,181.268,500.926-85.335-.879-114.02-2.244C3120.327,1405.43,3003.595,1396.685,3003.595,1396.685Z" fill="#ef3f3f"/>
    <path id="Path_3436" data-name="Path 3436" d="M3053.4,557.985l90.276,902.449c.257,2.575,2.212,4.487,4.365,4.271h0c2.153-.215,3.69-2.477,3.432-5.052l-93.095-902.51c-.8-3.73-2.81-5.86-4.575-1.825h0A5.348,5.348,0,0,0,3053.4,557.985Z" fill="#a55a46"/>
    <path id="Path_3437" data-name="Path 3437" d="M3091.232,607.315s-55.923,308.64-45.358,517.968,20.014,238.993,20.014,238.993,102.976,9.744,175.9,16.11,111.654,13.76,111.654,13.76S3170.938,734.366,3091.232,607.315Z" fill="#ff7e78"/>
    <path id="Path_3438" data-name="Path 3438" d="M3280.447,1421.9l-2.137.28v24.3l2.137-.267Z" fill="#bdc1a3"/>
    <path id="Path_3439" data-name="Path 3439" d="M3267.618,1423.583c-.7.092-1.415.186-2.138.279v24.226l2.138-.267Z" fill="#bdc1a3"/>
    <path id="Path_3440" data-name="Path 3440" d="M3254.789,1425.263l-2.139.28v24.147l2.139-.268Z" fill="#bdc1a3"/>
    <path id="Path_3441" data-name="Path 3441" d="M3241.959,1426.943c-.709.094-1.42.188-2.139.281v24.066l2.139-.267Z" fill="#bdc1a3"/>
    <path id="Path_3442" data-name="Path 3442" d="M3229.13,1428.627l-2.139.28v23.985l2.139-.267Z" fill="#bdc1a3"/>
    <path id="Path_3443" data-name="Path 3443" d="M3216.3,1430.31l-2.139.282v23.07h2.139Z" fill="#bdc1a3"/>
    <path id="Path_3444" data-name="Path 3444" d="M3203.471,1432q-1.069.141-2.139.28v21.386h2.139Z" fill="#bdc1a3"/>
    <path id="Path_3445" data-name="Path 3445" d="M3190.641,1433.684l-2.139.281V1457.7l2.139-.267Z" fill="#bdc1a3"/>
    <path id="Path_3446" data-name="Path 3446" d="M3179.949,1435.092l-2.139.281v23.657l2.139-.266Z" fill="#bdc1a3"/>
    <path id="Path_3447" data-name="Path 3447" d="M3167.119,1436.783l-2.138.282v23.567l2.138-.267Z" fill="#bdc1a3"/>
    <path id="Path_3448" data-name="Path 3448" d="M3154.29,1438.478l-2.138.284v23.471l2.138-.267Z" fill="#bdc1a3"/>
    <path id="Path_3449" data-name="Path 3449" d="M3141.46,1440.179l-2.139.284v23.371l2.139-.267Z" fill="#bdc1a3"/>
    <path id="Path_3450" data-name="Path 3450" d="M3128.631,1441.886l-2.139.286v23.263l2.139-.266Z" fill="#bdc1a3"/>
    <path id="Path_3451" data-name="Path 3451" d="M3115.8,1443.6l-1.069.144-1.07.143v23.146l2.139-.266Z" fill="#bdc1a3"/>
    <path id="Path_3452" data-name="Path 3452" d="M3102.972,1445.224l-2.139.251v23.164l2.139-.267Z" fill="#bdc1a3"/>
    <path id="Path_3453" data-name="Path 3453" d="M3090.142,1446.685l-2.138.235v23.32l2.138-.266Z" fill="#bdc1a3"/>
    <path id="Path_3454" data-name="Path 3454" d="M3077.313,1448.065l-2.139.224v23.552l2.139-.266Z" fill="#bdc1a3"/>
    <path id="Path_3455" data-name="Path 3455" d="M3064.482,1448.858l-2.137.217v23.835l2.137-.267Z" fill="#bdc1a3"/>
    <path id="Path_3456" data-name="Path 3456" d="M3051.652,1449.969c-.711.071-1.424.14-2.138.212v24.153l2.138-.268Z" fill="#bdc1a3"/>
    <path id="Path_3457" data-name="Path 3457" d="M3038.822,1451.4l-2.137.208v24.5l2.137-.267Z" fill="#bdc1a3"/>
    <path id="Path_3458" data-name="Path 3458" d="M3026.172,1452.107c-.715.069-1.427.135-2.139.2v24.872l2.139-.268Z" fill="#bdc1a3"/>
    <path id="Path_3459" data-name="Path 3459" d="M2976.814,1456.322l-2.139.195v26.448l2.139-.268Z" fill="#bdc1a3"/>
    <path id="Path_3460" data-name="Path 3460" d="M2963.983,1457.658l-2.137.192v26.893l2.137-.266Z" fill="#bdc1a3"/>
    <path id="Path_3461" data-name="Path 3461" d="M2951.153,1458.8l-2.137.188v27.355l2.137-.268Z" fill="#bdc1a3"/>
    <path id="Path_3462" data-name="Path 3462" d="M2938.324,1460.35h-2.139v28.238l2.139-.267Z" fill="#bdc1a3"/>
    <path id="Path_3463" data-name="Path 3463" d="M2925.494,1460.952h-2.138v29.839l2.138-.267Z" fill="#bdc1a3"/>
    <path id="Path_3464" data-name="Path 3464" d="M3013.164,1453.145q-1.073.1-2.139.2V1478.6l2.139-.266Z" fill="#bdc1a3"/>
    <path id="Path_3465" data-name="Path 3465" d="M3000.334,1454.343q-1.073.1-2.138.2v25.665l2.138-.266Z" fill="#bdc1a3"/>
    <path id="Path_3466" data-name="Path 3466" d="M2989.465,1455.329c-.715.067-1.432.132-2.138.2v26.016l2.138-.267Z" fill="#bdc1a3"/>
    <path id="Path_3467" data-name="Path 3467" d="M2815.164,1468.085v-11.513c0-4.523,2.672-8.19,5.968-8.19h.173c3.3,0,5.968,3.667,5.968,8.19v11.569c0,5.3-3.611,9.2-7.365,7.966l-.172-.056C2817.052,1475.164,2815.164,1471.873,2815.164,1468.085Z" fill="#d8a971"/>
    <path id="Path_3468" data-name="Path 3468" d="M2830.4,1520.7H3252.7l29.936-71.632s-260.87,34.212-321.81,36.351-168.924-9.622-168.924-9.622S2792.976,1512.152,2830.4,1520.7Z" fill="#e5c4a5"/>
    <path id="Path_3469" data-name="Path 3469" d="M2789.768,1464.041s104.775,11.761,145.4,10.691,197.79-14.967,232-21.382,178.028-22.673,178.028-22.673,6.042,9.071-.552,10.912c-6.243,1.744-62.009,7.484-62.009,7.484,8.531-.361-267.575,35.03-345.331,38.132-39.2,1.565-142.552-11.4-145.4-11.4S2779.076,1470.1,2789.768,1464.041Z" fill="#d8a971"/>
    <path id="Path_3470" data-name="Path 3470" d="M3320.428,1277.775c-56.324-195.332-170.568-577.007-229.2-670.46,0,0,16.574,266.907,76.574,412.712C3218.089,1142.224,3296.386,1247.031,3320.428,1277.775Z" fill="#ff6c6c"/>
    <path id="Path_3471" data-name="Path 3471" d="M3190.99,1375.858c-2.428-26.987-10.8-82.748-39.166-175.654-33.265-108.976-83.953-149.933-106.853-165.688-.738,31.422-.547,62.033.9,90.767,10.566,209.327,20.014,238.993,20.014,238.993S3128.727,1370.222,3190.99,1375.858Z" fill="#ff7373"/>
    <path id="Path_3472" data-name="Path 3472" d="M2960.829,1485.424c-60.94,2.137-168.923-9.622-168.923-9.622s1.069,36.35,38.489,44.9c5.147-.326,216.385-6.447,303.658-52.988C3064.144,1476.121,2989.838,1484.406,2960.829,1485.424Z" fill="#e8e4d6"/>
    <path id="Path_3473" data-name="Path 3473" d="M2825.088,1497.114c.1-2.924,1.727-5.242,3.634-5.176s3.372,2.487,3.273,5.412-1.727,5.242-3.634,5.176S2824.989,1500.039,2825.088,1497.114Z" fill="#655e57"/>
    <path id="Path_3474" data-name="Path 3474" d="M2838.038,1497.555c.1-2.924,1.726-5.241,3.634-5.177s3.371,2.488,3.271,5.413-1.725,5.241-3.633,5.177S2837.938,1500.478,2838.038,1497.555Z" fill="#655e57"/>
    <path id="Path_3475" data-name="Path 3475" d="M2867.854,1497.114c.1-2.924,1.726-5.242,3.634-5.176s3.372,2.487,3.272,5.412-1.726,5.242-3.633,5.176S2867.754,1500.039,2867.854,1497.114Z" fill="#655e57"/>
    <path id="Path_3476" data-name="Path 3476" d="M2880.8,1497.555c.1-2.924,1.726-5.241,3.634-5.177s3.372,2.488,3.272,5.413-1.727,5.241-3.633,5.177S2880.7,1500.478,2880.8,1497.555Z" fill="#655e57"/>
    <path id="Path_3477" data-name="Path 3477" d="M3021.988,1506.731a6.7,6.7,0,0,1-.447-13.38,6.7,6.7,0,1,1,.913,13.366C3022.3,1506.728,3022.143,1506.731,3021.988,1506.731Zm.01-11.256c-.1,0-.206,0-.31.009a4.583,4.583,0,1,0,.31-.009Z" fill="#939ea0"/>
    <path id="Path_3478" data-name="Path 3478" d="M3016.382,1500.417a5.629,5.629,0,1,1,6,5.232A5.629,5.629,0,0,1,3016.382,1500.417Z" fill="#5881a0"/>
    <path id="Path_3479" data-name="Path 3479" d="M3043.047,1505.3a6.694,6.694,0,0,1-6.674-6.242h0a6.7,6.7,0,1,1,13.364-.912,6.7,6.7,0,0,1-6.225,7.139C3043.356,1505.293,3043.2,1505.3,3043.047,1505.3Zm-4.539-6.388a4.559,4.559,0,1,0,4.239-4.859,4.524,4.524,0,0,0-4.239,4.859Z" fill="#939ea0"/>
    <path id="Path_3480" data-name="Path 3480" d="M3037.44,1498.981a5.629,5.629,0,1,1,6,5.233A5.631,5.631,0,0,1,3037.44,1498.981Z" fill="#5881a0"/>
    <path id="Path_3481" data-name="Path 3481" d="M3085.165,1502.426a6.691,6.691,0,1,1,.464-.015C3085.475,1502.422,3085.318,1502.426,3085.165,1502.426Zm.009-11.258c-.1,0-.206,0-.312.011a4.554,4.554,0,1,0,.312-.011Z" fill="#939ea0"/>
    <path id="Path_3482" data-name="Path 3482" d="M3079.557,1496.11a5.629,5.629,0,1,1,6,5.234A5.629,5.629,0,0,1,3079.557,1496.11Z" fill="#5881a0"/>
    <path id="Path_3483" data-name="Path 3483" d="M3106.219,1500.991a6.7,6.7,0,0,1-6.67-6.244h0a6.7,6.7,0,1,1,7.136,6.228C3106.529,1500.984,3106.373,1500.991,3106.219,1500.991Zm.013-11.258c-.1,0-.206,0-.31.011a4.563,4.563,0,0,0-4.239,4.858h0a4.558,4.558,0,1,0,4.549-4.869Z" fill="#939ea0"/>
    <path id="Path_3484" data-name="Path 3484" d="M3100.615,1494.676a5.629,5.629,0,1,1,6,5.232A5.629,5.629,0,0,1,3100.615,1494.676Z" fill="#495d60"/>
    <path id="Path_3485" data-name="Path 3485" d="M3146.059,1498.924a6.706,6.706,0,0,1-6.68-6.241h0a6.7,6.7,0,1,1,7.139,6.226C3146.363,1498.919,3146.211,1498.924,3146.059,1498.924Zm-4.546-6.388a4.559,4.559,0,1,0,4.238-4.859,4.528,4.528,0,0,0-4.238,4.859Z" fill="#939ea0"/>
    <path id="Path_3486" data-name="Path 3486" d="M3140.445,1492.608a5.628,5.628,0,1,1,6,5.234A5.628,5.628,0,0,1,3140.445,1492.608Z" fill="#495d60"/>
    <path id="Path_3487" data-name="Path 3487" d="M3167.109,1497.487a6.653,6.653,0,1,1,.465-.014C3167.418,1497.482,3167.264,1497.487,3167.109,1497.487Zm.017-11.256c-.1,0-.211,0-.316.011a4.562,4.562,0,0,0-4.239,4.858h0a4.558,4.558,0,1,0,4.555-4.869Z" fill="#939ea0"/>
    <path id="Path_3488" data-name="Path 3488" d="M3161.5,1491.173a5.629,5.629,0,1,1,6,5.233A5.628,5.628,0,0,1,3161.5,1491.173Z" fill="#495d60"/>
    <path id="Path_3489" data-name="Path 3489" d="M2923.357,1462l-.014-2.119,179.533-15.72,190.26-24.99,51.284-8.548.351,2.109-51.318,8.554-190.342,25Z" fill="#d8a971"/>
    <path id="Path_3490" data-name="Path 3490" d="M2996.762,1062.894c10.4-35.543,39.565-141,46.738-228.873,8.772-107.467,9.9-276.036,9.9-276.036l-.977.871c-12.974,35.046-49.273,271.008-53.1,397.345C2998.412,986.109,2997.506,1023.126,2996.762,1062.894Z" fill="#ff7373"/>
  </g>
</svg>
