<svg width="29" height="24" viewBox="0 0 29 24" fill="none" xmlns="http://www.w3.org/2000/svg">
<path d="M1.79306 20.826H27.1791V23.4979H1.79306V20.826ZM27.9411 8.31996C27.8733 8.06518 27.7559 7.8263 27.5955 7.61707C27.4351 7.40784 27.235 7.23238 27.0065 7.10078C26.7781 6.96919 26.5259 6.88405 26.2645 6.85027C26.003 6.81649 25.7374 6.83474 25.4831 6.90396L18.3881 8.80396L9.16806 0.209961L6.58906 0.890961L12.1211 10.4709L5.48106 12.2479L2.85106 10.191L0.914062 10.712L3.34606 14.934L4.37506 16.711L6.51306 16.1359L13.6081 14.236L19.4201 12.6859L26.5151 10.7859C27.0283 10.6435 27.4652 10.3054 27.7318 9.84427C27.9985 9.38316 28.0736 8.83586 27.9411 8.31996Z" fill="#E21224"/>
</svg>
