<svg width="66" height="60" viewBox="0 0 66 60" fill="none" xmlns="http://www.w3.org/2000/svg">
<path d="M58.5947 17.5187C58.4501 16.9749 58.1995 16.4651 57.8572 16.0186C57.515 15.5721 57.0878 15.1976 56.6003 14.9167C56.1127 14.6359 55.5745 14.4542 55.0165 14.3821C54.4585 14.31 53.8918 14.349 53.3489 14.4967L38.2068 18.5516L18.5296 0.210449L13.0256 1.66383L24.8319 22.1093L10.6609 25.9018L5.04798 21.5118L0.914062 22.6237L6.1044 31.6342L8.30048 35.4266L12.8634 34.1995L28.0054 30.1445L40.4093 26.8365L55.5513 22.7816C56.6467 22.4775 57.5791 21.7559 58.1482 20.7719C58.7172 19.7878 58.8776 18.6197 58.5947 17.5187Z" fill="#393939"/>
<path d="M8.01904 42.5657C8.16593 43.1089 8.41875 43.6176 8.76296 44.0626C9.10716 44.5077 9.53596 44.8803 10.0247 45.1591C10.5134 45.4378 11.0524 45.6172 11.6107 45.6869C12.169 45.7565 12.7356 45.7152 13.2779 45.5651L28.4023 41.4449L48.1584 59.701L53.6561 58.2239L41.7617 37.8295L55.9162 33.976L61.548 38.3417L65.6771 37.212L60.448 28.2239L58.2355 24.441L53.678 25.6878L38.5536 29.8081L26.1641 33.1695L11.0397 37.2898C9.94562 37.5985 9.01636 38.3241 8.45154 39.3107C7.88673 40.2972 7.73144 41.4659 8.01904 42.5657Z" fill="#E21122"/>
</svg>
