<svg xmlns="http://www.w3.org/2000/svg" width="22.581" height="30.193" viewBox="0 0 22.581 30.193"><g transform="translate(0)"><path d="M959.74,521.83q.6.038,1.167.115c.266.035.529.079.784.133v-3.771A1.308,1.308,0,0,0,960.383,517h-6.892a1.308,1.308,0,0,0-1.307,1.307v3.656q.386-.062.784-.1t.784-.054v-3.242h6.372v3.263Zm0,0" transform="translate(-945.528 -517)"/><path d="M958.06,525.4c-.271-.059-.549-.105-.829-.143a31.066,31.066,0,0,0-3.942-.161l-1.215,0c-.881,0-1.731.01-2.54.084-.276.025-.548.059-.814.1-3.957.617-6.719,3.268-6.719,14.562,0,4.943,1.457,7.021,3.773,7.886v1.789a.48.48,0,0,0,.48.48H948.3a.479.479,0,0,0,.48-.48v-1.238c.651.04,1.33.054,2.037.054.8,0,1.624-.016,2.474-.016,1.552,0,3.028.1,4.374.1.1,0,.2,0,.3,0v1.1a.481.481,0,0,0,.48.48h2.048a.481.481,0,0,0,.48-.48v-1.514c2.221-.766,3.613-2.836,3.613-8.162,0-10.712-2.668-13.64-6.52-14.439Zm-4.769,3.441c3.942,0,7.135,0,7.135,14.028H946.153c0-14.028,3.2-14.028,7.138-14.028Zm0,0" transform="translate(-942 -519.806)"/></g></svg>