<svg xmlns="http://www.w3.org/2000/svg" width="30.193" height="30.193" viewBox="0 0 30.193 30.193"><g transform="translate(0)"><path d="M442.655,116.359h-1.415V114h-2.359v2.359H423.312V114h-2.359v2.359h-1.415A3.542,3.542,0,0,0,416,119.9v20.758a3.542,3.542,0,0,0,3.538,3.538h23.117a3.542,3.542,0,0,0,3.538-3.538V119.9A3.542,3.542,0,0,0,442.655,116.359Zm-23.117,2.359h1.415v2.359h2.359v-2.359h15.568v2.359h2.359v-2.359h1.415a1.181,1.181,0,0,1,1.179,1.179v2.831H418.359V119.9A1.181,1.181,0,0,1,419.538,118.718Zm23.117,23.117H419.538a1.181,1.181,0,0,1-1.179-1.179V125.086h25.475v15.568A1.181,1.181,0,0,1,442.655,141.834Z" transform="translate(-416 -114)"/><rect width="2.801" height="1.867" transform="translate(4.72 14.13)"/><rect width="1.867" height="1.867" transform="translate(9.389 14.13)"/><rect width="2.801" height="1.867" transform="translate(13.123 14.13)"/><rect width="2.801" height="1.867" transform="translate(18.725 14.13)"/><rect width="2.801" height="1.867" transform="translate(23.393 14.13)"/><rect width="2.801" height="1.867" transform="translate(4.72 18.798)"/><rect width="1.867" height="1.867" transform="translate(9.389 18.798)"/><rect width="2.801" height="1.867" transform="translate(13.123 18.798)"/><rect width="2.801" height="1.867" transform="translate(18.725 18.798)"/><rect width="2.801" height="2.801" transform="translate(4.72 22.532)"/><rect width="1.867" height="2.801" transform="translate(9.389 22.532)"/><rect width="2.801" height="2.801" transform="translate(13.123 22.532)"/><rect width="2.801" height="2.801" transform="translate(18.725 22.532)"/><rect width="2.801" height="1.867" transform="translate(23.393 18.798)"/></g></svg>