<svg xmlns="http://www.w3.org/2000/svg" width="16.974" height="19.399" viewBox="0 0 16.974 19.399"><path d="M2.425,8.487h.511a6.054,6.054,0,0,0,11.1,0h.511a.608.608,0,0,0,.606-.606V4.244a.608.608,0,0,0-.606-.606h-.511a6.054,6.054,0,0,0-11.1,0H2.425a.608.608,0,0,0-.606.606V7.881A.608.608,0,0,0,2.425,8.487ZM3.94,5.153A1.688,1.688,0,0,1,5.759,3.637h5.456a1.688,1.688,0,0,1,1.819,1.516v.909A3.638,3.638,0,0,1,9.4,9.7H7.578A3.638,3.638,0,0,1,3.94,6.062ZM6.668,7.881l.455-1.364,1.364-.455L7.123,5.608,6.668,4.244,6.214,5.608,4.85,6.062l1.364.455Zm5.744,4.3a7.224,7.224,0,0,1-7.851,0A5.078,5.078,0,0,0,0,17.217v.364A1.819,1.819,0,0,0,1.819,19.4H4.85V16.974a1.211,1.211,0,0,1,1.212-1.212h4.85a1.211,1.211,0,0,1,1.212,1.212V19.4h3.031a1.819,1.819,0,0,0,1.819-1.819v-.364A5.078,5.078,0,0,0,12.412,12.177Zm-2.107,4.8a.606.606,0,1,0,.606.606A.608.608,0,0,0,10.306,16.974Zm-3.637,0a.608.608,0,0,0-.606.606V19.4H7.275V17.58A.608.608,0,0,0,6.668,16.974Z"/></svg>