<svg xmlns="http://www.w3.org/2000/svg" width="20.645" height="20.642" viewBox="0 0 20.645 20.642"><path d="M16.259-1.5a2.934,2.934,0,0,1,2.4,1.32,2.732,2.732,0,0,1,.273,2.6l-.016.037L11.98,17.485a2.823,2.823,0,0,1-5.394-1.146V11.055H1.3a2.753,2.753,0,0,1-2.734-2.2A2.8,2.8,0,0,1,.156,5.661l0,0L15.219-1.29A2.691,2.691,0,0,1,16.259-1.5Zm.7,3.084a.616.616,0,0,0-.084-.575A.782.782,0,0,0,16.26.643h0a.547.547,0,0,0-.2.039L1.061,7.6a.663.663,0,0,0-.4.785.625.625,0,0,0,.641.522H8.73v7.427a.68.68,0,0,0,1.307.242Z" transform="translate(1.502 1.5)"/></svg>